#Comment line ignore any data following # character 
#Hierarchical Translation and Rotation (.htr) file 
[Header]	
#Header keywords are followed by a single value 
FileType HTR		#Single word string
DataType HTRS		#Translation followed by rotation and scale data
FileVersion 1		#integer
NumSegments 64		#integer
NumFrames 3		#integer
DataFrameRate 30		#integer, data frame rate in this file
EulerRotationOrder ZYX
CalibrationUnits mm
RotationUnits Degrees
GlobalAxisofGravity Y
BoneLengthAxis Y
ScaleFactor 1.00
[SegmentNames&Hierarchy]
#CHILD	PARENT
Pinger_Root GLOBAL
Pelvis Pinger_Root
L_Hip Pelvis
R_Hip Pelvis
Rear_Leg01 Pelvis
Spine1 Pelvis
L_Leg01 L_Hip
L_Leg02 L_Leg01
L_Leg03 L_Leg02
L_Foot L_Leg03
L_Toe1_01 L_Foot
L_Toe2_01 L_Foot
L_Toe3_01 L_Foot
planeAlignerLeft L_Foot
L_Toe1_02 L_Toe1_01
L_Toe1_03 L_Toe1_02
L_Toe2_02 L_Toe2_01
L_Toe2_03 L_Toe2_02
L_Toe3_02 L_Toe3_01
L_Toe3_03 L_Toe3_02
planeLockWeightLeft planeAlignerLeft
R_Leg01 R_Hip
R_Leg02 R_Leg01
R_Leg03 R_Leg02
R_Foot R_Leg03
planeAlignerRight R_Foot
R_Toe1_01 R_Foot
R_Toe2_01 R_Foot
R_Toe3_01 R_Foot
planeLockWeightRight planeAlignerRight
R_Toe1_02 R_Toe1_01
R_Toe1_03 R_Toe1_02
R_Toe2_02 R_Toe2_01
R_Toe2_03 R_Toe2_02
R_Toe3_02 R_Toe3_01
R_Toe3_03 R_Toe3_02
Rear_Leg02 Rear_Leg01
Rear_Leg03 Rear_Leg02
Rear_Leg04 Rear_Leg03
Rear_Foot Rear_Leg04
planeAlignerCenter Rear_Foot
Rear_Toe1_01 Rear_Foot
Rear_Toe2_01 Rear_Foot
Rear_Toe3_01 Rear_Foot
planeLockWeightCenter planeAlignerCenter
Rear_Toe1_02 Rear_Toe1_01
Rear_Toe1_03 Rear_Toe1_02
Rear_Toe2_02 Rear_Toe2_01
Rear_Toe2_03 Rear_Toe2_02
Rear_Toe3_02 Rear_Toe3_01
Rear_Toe3_03 Rear_Toe3_02
Back_Bone Spine1
Head Spine1
Motor_Bone Back_Bone
Ping_Mechanism Back_Bone
BN_LookIK Head
bottomMouth Head
L_Mouth01 Head
L_mouthFront Head
mouthGun Head
R_Mouth01 Head
R_mouthFront Head
TopMouth Head
weapon_bone Head
[BasePosition]
#SegmentName Tx, Ty, Tz, Rx, Ry, Rz, BoneLength
Pinger_Root 0.000000 0.000000 0.000000 -90.000000 0.000000 0.000000 10.000000 
Pelvis 0.000000 0.000000 0.000000 0.000000 0.000000 0.000000 10.000000 
L_Hip 0.000000 0.000000 0.000000 0.000000 0.000000 0.000000 10.000000 
R_Hip 0.000000 0.000000 0.000000 0.000000 0.000000 0.000000 10.000000 
Rear_Leg01 0.000000 0.000000 0.000000 0.000000 0.000000 0.000000 10.000000 
Spine1 0.000000 0.000000 0.000000 0.000000 0.000000 0.000000 10.000000 
L_Leg01 0.000000 0.000000 0.000000 0.000000 0.000000 0.000000 10.000000 
L_Leg02 0.000000 0.000000 0.000000 0.000000 0.000000 0.000000 10.000000 
L_Leg03 0.000000 0.000000 0.000000 0.000000 0.000000 0.000000 10.000000 
L_Foot 0.000000 0.000000 0.000000 0.000000 0.000000 0.000000 10.000000 
L_Toe1_01 0.000000 0.000000 0.000000 0.000000 0.000000 0.000000 10.000000 
L_Toe2_01 0.000000 0.000000 0.000000 0.000000 0.000000 0.000000 10.000000 
L_Toe3_01 0.000000 0.000000 0.000000 0.000000 0.000000 0.000000 10.000000 
planeAlignerLeft 0.000000 0.000000 0.000000 0.000000 0.000000 0.000000 10.000000 
L_Toe1_02 0.000000 0.000000 0.000000 0.000000 0.000000 0.000000 10.000000 
L_Toe1_03 0.000000 0.000000 0.000000 0.000000 0.000000 0.000000 10.000000 
L_Toe2_02 0.000000 0.000000 0.000000 0.000000 0.000000 0.000000 10.000000 
L_Toe2_03 0.000000 0.000000 0.000000 0.000000 0.000000 0.000000 10.000000 
L_Toe3_02 0.000000 0.000000 0.000000 0.000000 0.000000 0.000000 10.000000 
L_Toe3_03 0.000000 0.000000 0.000000 0.000000 0.000000 0.000000 10.000000 
planeLockWeightLeft 0.000000 0.000000 0.000000 0.000000 0.000000 0.000000 10.000000 
R_Leg01 0.000000 0.000000 0.000000 0.000000 0.000000 0.000000 10.000000 
R_Leg02 0.000000 0.000000 0.000000 0.000000 0.000000 0.000000 10.000000 
R_Leg03 0.000000 0.000000 0.000000 0.000000 0.000000 0.000000 10.000000 
R_Foot 0.000000 0.000000 0.000000 0.000000 0.000000 0.000000 10.000000 
planeAlignerRight 0.000000 0.000000 0.000000 0.000000 0.000000 0.000000 10.000000 
R_Toe1_01 0.000000 0.000000 0.000000 0.000000 0.000000 0.000000 10.000000 
R_Toe2_01 0.000000 0.000000 0.000000 0.000000 0.000000 0.000000 10.000000 
R_Toe3_01 0.000000 0.000000 0.000000 0.000000 0.000000 0.000000 10.000000 
planeLockWeightRight 0.000000 0.000000 0.000000 0.000000 0.000000 0.000000 10.000000 
R_Toe1_02 0.000000 0.000000 0.000000 0.000000 0.000000 0.000000 10.000000 
R_Toe1_03 0.000000 0.000000 0.000000 0.000000 0.000000 0.000000 10.000000 
R_Toe2_02 0.000000 0.000000 0.000000 0.000000 0.000000 0.000000 10.000000 
R_Toe2_03 0.000000 0.000000 0.000000 0.000000 0.000000 0.000000 10.000000 
R_Toe3_02 0.000000 0.000000 0.000000 0.000000 0.000000 0.000000 10.000000 
R_Toe3_03 0.000000 0.000000 0.000000 0.000000 0.000000 0.000000 10.000000 
Rear_Leg02 0.000000 0.000000 0.000000 0.000000 0.000000 0.000000 10.000000 
Rear_Leg03 0.000000 0.000000 0.000000 0.000000 0.000000 0.000000 10.000000 
Rear_Leg04 0.000000 0.000000 0.000000 0.000000 0.000000 0.000000 10.000000 
Rear_Foot 0.000000 0.000000 0.000000 0.000000 0.000000 0.000000 10.000000 
planeAlignerCenter 0.000000 0.000000 0.000000 0.000000 0.000000 0.000000 10.000000 
Rear_Toe1_01 0.000000 0.000000 0.000000 0.000000 0.000000 0.000000 10.000000 
Rear_Toe2_01 0.000000 0.000000 0.000000 0.000000 0.000000 0.000000 10.000000 
Rear_Toe3_01 0.000000 0.000000 0.000000 0.000000 0.000000 0.000000 10.000000 
planeLockWeightCenter 0.000000 0.000000 0.000000 0.000000 0.000000 0.000000 10.000000 
Rear_Toe1_02 0.000000 0.000000 0.000000 0.000000 0.000000 0.000000 10.000000 
Rear_Toe1_03 0.000000 0.000000 0.000000 0.000000 0.000000 0.000000 10.000000 
Rear_Toe2_02 0.000000 0.000000 0.000000 0.000000 0.000000 0.000000 10.000000 
Rear_Toe2_03 0.000000 0.000000 0.000000 0.000000 0.000000 0.000000 10.000000 
Rear_Toe3_02 0.000000 0.000000 0.000000 0.000000 0.000000 0.000000 10.000000 
Rear_Toe3_03 0.000000 0.000000 0.000000 0.000000 0.000000 0.000000 10.000000 
Back_Bone 0.000000 0.000000 0.000000 0.000000 0.000000 0.000000 10.000000 
Head 0.000000 0.000000 0.000000 0.000000 0.000000 0.000000 10.000000 
Motor_Bone 0.000000 0.000000 0.000000 0.000000 0.000000 0.000000 10.000000 
Ping_Mechanism 0.000000 0.000000 0.000000 0.000000 0.000000 0.000000 10.000000 
BN_LookIK 0.000000 0.000000 0.000000 0.000000 0.000000 0.000000 10.000000 
bottomMouth 0.000000 0.000000 0.000000 0.000000 0.000000 0.000000 10.000000 
L_Mouth01 0.000000 0.000000 0.000000 0.000000 0.000000 0.000000 10.000000 
L_mouthFront 0.000000 0.000000 0.000000 0.000000 0.000000 0.000000 10.000000 
mouthGun 0.000000 0.000000 0.000000 0.000000 0.000000 0.000000 10.000000 
R_Mouth01 0.000000 0.000000 0.000000 0.000000 0.000000 0.000000 10.000000 
R_mouthFront 0.000000 0.000000 0.000000 0.000000 0.000000 0.000000 10.000000 
TopMouth 0.000000 0.000000 0.000000 0.000000 0.000000 0.000000 10.000000 
weapon_bone 0.000000 0.000000 0.000000 0.000000 0.000000 0.000000 10.000000 
#Beginning of Data. Separated by tabs
#Fr	Tx	Ty	Tz	Rx	Ry	Rz	SF
[Pinger_Root]
19 0.000000 0.000000 0.000000 -0.000075 -0.000000 -0.000020 0.000000
20 0.000000 0.000000 0.000000 -0.000075 -0.000000 -0.000020 0.000000
21 0.000000 0.000000 0.000000 -0.000075 -0.000000 -0.000020 0.000000
[Pelvis]
19 -528.273499 281.753632 4998.008789 -97.710953 -78.228798 133.818359 5033.740723
20 -677.096741 233.399887 5031.011719 -100.842743 -77.414017 136.719513 5081.733398
21 -839.575867 186.343094 5059.364258 -102.010681 -77.101311 137.769302 5131.937012
[L_Hip]
19 5.766392 125.831482 872.656799 178.273712 -80.858322 91.051956 881.701050
20 5.766392 125.831482 872.656799 -179.242462 -81.550919 88.421829 881.701050
21 5.766392 125.831482 872.656799 -178.919113 -81.630135 88.081352 881.701050
[R_Hip]
19 5.765438 125.836372 -872.654907 3.340979 81.147850 92.284683 881.699829
20 5.765438 125.836372 -872.654907 -0.342062 81.626419 88.733437 881.699829
21 5.765438 125.836372 -872.654907 -0.804328 81.680771 88.288727 881.699829
[Rear_Leg01]
19 -192.298416 -925.602966 -0.001907 -172.192993 1.464510 -151.282455 945.367432
20 -192.298416 -925.602966 -0.001907 -178.284775 20.275833 -156.129333 945.367432
21 -192.298416 -925.602966 -0.001907 178.705475 30.296806 -156.596542 945.367432
[Spine1]
19 290.604584 5.007505 0.000477 -21.930010 13.657070 14.362723 290.647736
20 290.604584 5.007505 0.000477 -21.130650 14.315230 14.147196 290.647736
21 290.604584 5.007505 0.000477 -20.740191 14.657720 14.314393 290.647736
[L_Leg01]
19 761.932007 -0.002384 -0.069261 61.456280 1.589133 -68.805984 761.932068
20 761.932007 -0.002384 -0.069261 61.546890 0.168680 -69.717964 761.932068
21 761.932007 -0.002384 -0.069261 61.468296 -0.748043 -71.033264 761.932068
[L_Leg02]
19 1441.140503 -0.000954 -0.000715 -1.496283 0.602994 -82.660149 1441.140503
20 1441.140503 -0.000954 -0.000715 -1.496238 0.597549 -84.905769 1441.140503
21 1441.140503 -0.000954 -0.000715 -1.479538 0.618691 -86.309280 1441.140503
[L_Leg03]
19 1686.963989 -0.000715 -0.000954 0.054273 -0.012973 95.215042 1686.963989
20 1686.963989 -0.000715 -0.000954 0.054197 -0.013286 95.876259 1686.963989
21 1686.963989 -0.000715 -0.000954 0.054227 -0.013166 95.622887 1686.963989
[L_Foot]
19 3041.570068 -30.715107 11.297464 -23.644989 15.870481 73.422279 3041.746094
20 3041.570068 -30.715107 11.297464 -21.945427 15.944397 75.526009 3041.746094
21 3041.570068 -30.715107 11.297464 -20.243814 15.958228 77.631531 3041.746094
[L_Toe1_01]
19 -188.216690 -224.732346 -21.137953 89.704437 -4.267870 -167.388535 293.899567
20 -188.216690 -224.732346 -21.137953 89.710175 -3.625740 -166.085968 293.899567
21 -188.216690 -224.732346 -21.137953 89.699341 -3.378356 -165.452560 293.899567
[L_Toe2_01]
19 200.746536 -219.926590 148.838394 -77.878654 -15.645185 -42.625038 332.896027
20 200.746536 -219.926590 148.838394 -77.684685 -14.820194 -43.654705 332.896027
21 200.746536 -219.926590 148.838394 -77.585175 -14.470510 -44.182644 332.896027
[L_Toe3_01]
19 188.832520 -219.859131 -191.078659 -103.822433 14.326524 -42.759251 347.140900
20 188.832520 -219.859131 -191.078659 -104.723366 14.629762 -44.247837 347.140900
21 188.832520 -219.859131 -191.078659 -105.094337 14.710049 -44.951866 347.140900
[planeAlignerLeft]
19 -7.275992 -582.607239 42.629425 0.000000 -90.000000 -90.001633 584.210022
20 -10.801995 -598.516846 31.539940 0.000000 -89.980217 -90.001633 599.444641
21 -12.167505 -606.274841 27.239395 0.000000 -89.960434 -90.001617 607.008423
[L_Toe1_02]
19 413.761139 0.000477 0.000000 0.001417 -21.838856 0.001417 413.761139
20 413.761139 0.000477 0.000000 0.001413 -22.260126 0.001413 413.761139
21 413.761139 0.000477 0.000000 0.001413 -22.297937 0.001413 413.761139
[L_Toe1_03]
19 464.317322 0.000358 -0.000089 0.020394 83.399719 0.020394 464.317322
20 464.317322 0.000358 -0.000089 0.016324 81.754112 0.016324 464.317322
21 464.317322 0.000358 -0.000089 0.015052 81.056068 0.015052 464.317322
[L_Toe2_02]
19 342.235809 -0.000477 0.000238 0.001180 -77.761200 0.001180 342.235809
20 342.235809 -0.000477 0.000238 0.001180 -77.751251 0.001180 342.235809
21 342.235809 -0.000477 0.000238 0.001180 -77.741257 0.001180 342.235809
[L_Toe2_03]
19 420.210846 -0.000715 0.000000 -179.996811 76.676376 -179.993286 420.210846
20 420.210846 -0.000715 0.000000 -179.996719 76.916176 -179.993210 420.210846
21 420.210846 -0.000715 0.000000 -179.996613 77.155922 -179.993103 420.210846
[L_Toe3_02]
19 329.270111 0.000954 0.000000 0.001176 -82.351730 0.001176 329.270111
20 329.270111 0.000954 0.000000 0.001176 -82.133659 0.001176 329.270111
21 329.270111 0.000954 0.000000 0.001177 -81.915543 0.001177 329.270111
[L_Toe3_03]
19 439.137451 -0.001907 0.000954 179.998581 70.383072 -179.996979 439.137451
20 439.137451 -0.001907 0.000954 -179.998123 71.855461 -179.994583 439.137451
21 439.137451 -0.001907 0.000954 -179.997971 72.616493 -179.994431 439.137451
[planeLockWeightLeft]
19 1000.000122 -0.000094 -0.000250 -0.011826 -0.004376 0.005620 1000.000122
20 1000.000122 -0.000106 -0.000280 -0.011826 -0.004376 0.005620 1000.000122
21 1000.000000 -0.000117 -0.000310 -0.011826 -0.004376 0.005620 1000.000000
[R_Leg01]
19 761.455627 -0.001907 -0.000358 98.468201 -38.939190 69.117393 761.455688
20 761.455627 -0.001907 -0.000358 96.140419 -39.178974 69.836151 761.455688
21 761.455627 -0.001907 -0.000358 95.251656 -38.604591 69.008057 761.455688
[R_Leg02]
19 1441.140625 0.000000 -0.000238 0.162118 -0.027736 -104.383621 1441.140625
20 1441.140625 0.000000 -0.000238 0.172496 -0.032607 -102.583611 1441.140625
21 1441.140625 0.000000 -0.000238 0.182715 -0.037801 -100.783569 1441.140625
[R_Leg03]
19 1686.963989 0.000954 0.001431 -0.037615 0.011463 99.928467 1686.963989
20 1686.963989 0.000954 0.001431 -0.043544 0.012375 97.945366 1686.963989
21 1686.963989 0.000954 0.001431 -0.049499 0.013082 95.962845 1686.963989
[R_Foot]
19 3041.560059 -30.531288 -11.204481 15.180463 -21.712164 59.364979 3041.734131
20 3041.560059 -30.531288 -11.204481 18.669432 -22.132206 58.841488 3041.734131
21 3041.560059 -30.531288 -11.204481 21.206032 -22.303890 59.046741 3041.734131
[planeAlignerRight]
19 -17.933836 -620.680847 -19.174839 -36.680061 -88.051163 -54.596519 621.235901
20 -5.737022 -658.379333 -6.261468 0.000000 -89.473999 -90.353218 658.434082
21 -0.757466 -688.419312 0.057654 0.000000 -89.951546 -90.004936 688.419678
[R_Toe1_01]
19 -188.383347 -224.864899 21.052242 88.935730 0.857611 -165.894211 294.101532
20 -188.383347 -224.864899 21.052242 90.186470 1.723022 -162.220337 294.101532
21 -188.383347 -224.864899 21.052242 90.718582 1.938720 -159.553452 294.101532
[R_Toe2_01]
19 200.637817 -220.002121 -148.787384 -101.442665 13.815203 -46.056141 332.857574
20 200.637817 -220.002121 -148.787384 -102.603371 12.273468 -48.131092 332.857574
21 200.637817 -220.002121 -148.787384 -103.203026 11.339018 -50.098301 332.857574
[R_Toe3_01]
19 188.606735 -220.092957 191.126343 -73.014458 -15.770659 -49.629574 347.192566
20 188.606735 -220.092957 191.126343 -73.065414 -14.745090 -50.441792 347.192566
21 188.606735 -220.092957 191.126343 -72.668755 -14.211823 -52.118759 347.192566
[planeLockWeightRight]
19 999.999817 0.000114 -0.000432 -0.011823 -0.004379 -0.000027 999.999817
20 999.999817 0.000153 -0.000439 -0.011823 -0.004379 -0.000027 999.999817
21 999.999817 0.000191 -0.000446 -0.011823 -0.004379 -0.000027 999.999817
[R_Toe1_02]
19 413.762085 0.000477 -0.000119 0.000006 -25.434675 -0.000005 413.762085
20 413.762085 0.000477 -0.000119 0.000006 -25.434675 -0.000005 413.762085
21 413.762085 0.000477 -0.000119 0.000006 -25.434675 -0.000005 413.762085
[R_Toe1_03]
19 464.317810 0.000000 0.001088 0.013659 80.141701 0.013659 464.317810
20 464.317810 0.000000 0.001088 0.011836 78.618500 0.011836 464.317810
21 464.317810 0.000000 0.001088 0.010016 76.539627 0.010016 464.317810
[R_Toe2_02]
19 342.234741 -0.000954 0.000238 -0.002338 -76.912956 -0.002338 342.234741
20 342.234741 -0.000954 0.000238 -0.002340 -76.268784 -0.002340 342.234741
21 342.234741 -0.000954 0.000238 -0.001461 -75.467934 -0.001461 342.234741
[R_Toe2_03]
19 420.210846 0.000715 -0.000268 -179.992096 79.278404 -179.995605 420.210846
20 420.210846 0.000715 -0.000268 -179.989655 82.333664 -179.993149 420.210846
21 420.210846 0.000715 -0.000268 -179.983963 85.389008 -179.987473 420.210846
[R_Toe3_02]
19 329.270355 -0.000477 -0.000954 0.001178 -80.588211 0.001178 329.270355
20 329.270355 -0.000477 -0.000954 0.001178 -80.085648 0.001178 329.270355
21 329.270355 -0.000477 -0.000954 0.001179 -79.293785 0.001179 329.270355
[R_Toe3_03]
19 439.137939 0.000238 0.001431 -179.996552 77.345871 -179.993027 439.137939
20 439.137939 0.000238 0.001431 -179.995117 80.075363 -179.991608 439.137939
21 439.137939 0.000238 0.001431 -179.992584 82.804810 -179.989090 439.137939
[Rear_Leg02]
19 1162.777710 -0.029802 0.005960 25.885265 -17.050512 -106.870567 1162.777710
20 1162.777710 -0.029802 0.005960 26.409349 -17.173548 -105.022789 1162.777710
21 1162.777710 -0.029802 0.005960 24.476183 -20.212267 -97.630989 1162.777710
[Rear_Leg03]
19 607.192505 -0.013351 -0.073195 0.010044 -0.005939 77.548752 607.192505
20 607.192505 -0.013351 -0.073195 0.010041 -0.005945 77.612206 607.192505
21 607.192505 -0.013351 -0.073195 0.010116 -0.005815 76.141006 607.192505
[Rear_Leg04]
19 995.874512 -0.020504 -0.011921 -0.043361 -0.016869 91.641212 995.874573
20 995.874512 -0.020504 -0.011921 -0.043394 -0.016783 91.868576 995.874573
21 995.874512 -0.020504 -0.011921 -0.042619 -0.018664 86.858009 995.874573
[Rear_Foot]
19 3096.176270 -0.067472 -0.041425 -57.953583 55.858036 78.489471 3096.176270
20 3096.176270 -0.067472 -0.041425 -40.267372 45.589008 91.511505 3096.176270
21 3096.176270 -0.067472 -0.041425 -36.578712 40.139595 96.966576 3096.176270
[planeAlignerCenter]
19 23.453426 147.188278 -773.969543 4.310374 -0.001596 179.998291 788.189880
20 6.895479 209.585983 -766.252563 1.272735 -0.001641 179.998322 794.428589
21 -0.071842 245.112167 -761.916260 0.001665 -0.001660 179.998337 800.372620
[Rear_Toe1_01]
19 0.653352 83.966492 -371.173737 -0.880377 37.930485 88.603951 380.553192
20 0.653352 83.966492 -371.173737 -0.222359 38.925499 89.594635 380.553192
21 0.653352 83.966492 -371.173737 0.102971 39.664890 90.041512 380.553192
[Rear_Toe2_01]
19 178.200760 -294.826019 -362.060547 11.166192 61.732140 -55.985176 499.765686
20 178.200760 -294.826019 -362.060547 25.093126 77.716736 -44.813755 499.765686
21 178.200760 -294.826019 -362.060547 62.315838 84.619949 -8.357091 499.765686
[Rear_Toe3_01]
19 -153.359680 -308.780914 -362.060852 -3.484668 61.978256 -115.957062 499.952881
20 -153.359680 -308.780914 -362.060852 -20.728819 77.977692 -132.513107 499.952881
21 -153.359680 -308.780914 -362.060852 -64.110512 83.958397 -175.630341 499.952881
[planeLockWeightCenter]
19 0.000477 0.000305 -0.000000 -0.011814 -0.004373 -0.000015 0.000566
20 -0.000031 0.000301 0.000000 -0.011814 -0.004373 -0.000015 0.000303
21 -0.000023 0.000298 0.000000 -0.011814 -0.004373 -0.000015 0.000298
[Rear_Toe1_02]
19 379.707825 0.194073 0.000477 -0.000767 -33.624729 0.000838 379.707855
20 379.707825 0.194073 0.000477 -0.000767 -33.624729 0.000838 379.707855
21 379.707825 0.194073 0.000477 -0.000767 -33.624729 0.000838 379.707855
[Rear_Toe1_03]
19 500.129700 0.165701 0.000119 -0.019774 86.939636 -0.023272 500.129761
20 500.129700 0.165701 0.000119 -179.980209 86.348213 -179.983704 500.129761
21 500.129700 0.165701 0.000119 -179.984131 85.335114 -179.987625 500.129761
[Rear_Toe2_02]
19 340.494507 0.000238 -0.000954 179.998825 -88.477997 179.998825 340.494507
20 340.494507 0.000238 -0.000954 179.998825 -87.296654 179.998825 340.494507
21 340.494507 0.000238 -0.000954 179.998825 -87.230270 179.998825 340.494507
[Rear_Toe2_03]
19 433.103577 0.000000 0.000238 -179.995941 60.579586 -179.999542 433.103546
20 433.103577 0.000000 0.000238 -179.996246 55.176346 -179.999908 433.103546
21 433.103577 0.000000 0.000238 -179.996231 55.410843 -179.999893 433.103546
[Rear_Toe3_02]
19 340.494141 -0.000358 -0.000477 -179.997681 -88.112801 -179.997681 340.494171
20 340.494141 -0.000358 -0.000477 -179.994171 -87.262474 -179.994171 340.494171
21 340.494141 -0.000358 -0.000477 -179.994171 -87.216667 -179.994171 340.494171
[Rear_Toe3_03]
19 433.103577 0.001431 -0.000238 -179.999664 59.073227 -179.996033 433.103546
20 433.103577 0.001431 -0.000238 179.992432 55.020164 179.999756 433.103546
21 433.103577 0.001431 -0.000238 179.992371 55.667984 179.999680 433.103546
[Back_Bone]
19 1312.175781 -701.934692 0.000954 -2.399156 1.327130 -84.327354 1488.125488
20 1312.175781 -701.934692 0.000954 -2.664096 1.414649 -84.247948 1488.125488
21 1312.175781 -701.934692 0.000954 -2.870598 1.342644 -84.389481 1488.125488
[Head]
19 1406.159424 809.709290 0.001431 -8.974055 7.408800 2.740804 1622.625488
20 1406.159424 809.709290 0.001431 -9.503999 7.593016 2.364084 1622.625488
21 1406.159424 809.709290 0.001431 -10.035358 7.773755 1.985509 1622.625488
[Motor_Bone]
19 1158.364380 -417.834747 0.000477 -2.286770 0.124830 -105.859787 1231.419434
20 1158.364380 -417.834747 0.000477 -2.487354 0.128373 -105.855659 1231.419434
21 1158.364380 -417.834747 0.000477 -2.687933 0.131929 -105.851517 1231.419434
[Ping_Mechanism]
19 1260.921753 -453.767975 -30.651386 0.000103 -0.000053 82.120995 1340.435913
20 1263.418213 -454.038086 -36.049641 0.000103 -0.000053 82.120995 1343.009888
21 1264.058472 -454.176636 -37.858955 0.000103 -0.000053 82.120995 1343.708862
[BN_LookIK]
19 193.241119 1380.371704 -0.002861 0.000000 89.965736 -31.038179 1393.832153
20 193.241119 1380.371704 -0.002861 0.000000 89.965736 -31.038179 1393.832153
21 193.241119 1380.371704 -0.002861 0.000000 89.965736 -31.038179 1393.832153
[bottomMouth]
19 -435.092926 615.759399 -0.000954 -0.000022 0.000016 73.527184 753.966492
20 -435.092926 615.759399 -0.000954 -0.000022 0.000016 73.527184 753.966492
21 -435.092926 615.759399 -0.000954 -0.000022 0.000016 73.527184 753.966492
[L_Mouth01]
19 554.440979 7.658243 838.222046 150.204178 23.759130 109.605339 1005.027161
20 554.440979 7.658243 838.222046 150.204178 23.759130 109.605339 1005.027161
21 554.440979 7.658243 838.222046 150.204178 23.759130 109.605339 1005.027161
[L_mouthFront]
19 551.629089 934.514771 339.150421 0.000081 2.804060 79.119301 1136.941284
20 551.629089 934.514771 339.150421 0.000081 2.804060 79.119301 1136.941284
21 551.629089 934.514771 339.150421 0.000081 2.804060 79.119301 1136.941284
[mouthGun]
19 55.332661 1627.420898 0.000000 0.000023 0.000009 -11.038128 1628.361328
20 55.332661 1627.420898 0.000000 0.000023 0.000009 -11.038128 1628.361328
21 55.332661 1627.420898 0.000000 0.000023 0.000009 -11.038128 1628.361328
[R_Mouth01]
19 554.442383 7.659197 -838.223938 29.795891 -23.759109 109.605331 1005.029541
20 554.442383 7.659197 -838.223938 29.795891 -23.759109 109.605331 1005.029541
21 554.442383 7.659197 -838.223938 29.795891 -23.759109 109.605331 1005.029541
[R_mouthFront]
19 551.629089 934.514282 -339.151367 0.000029 -2.803930 79.119133 1136.941162
20 551.629089 934.514282 -339.151367 0.000029 -2.803930 79.119133 1136.941162
21 551.629089 934.514282 -339.151367 0.000029 -2.803930 79.119133 1136.941162
[TopMouth]
19 461.269867 -56.106091 -0.008583 -0.000059 -0.000268 92.025169 464.669525
20 461.269867 -56.106091 -0.008583 -0.000059 -0.000268 92.025169 464.669525
21 461.269867 -56.106091 -0.008583 -0.000059 -0.000268 92.025169 464.669525
[weapon_bone]
19 -987.239868 1448.372803 0.001431 0.000000 89.965736 -31.038221 1752.833740
20 -987.239868 1448.372803 0.001431 0.000000 89.965736 -31.038221 1752.833740
21 -987.239868 1448.372803 0.001431 0.000000 89.965736 -31.038221 1752.833740
